<mxfile host="app.diagrams.net" agent="Mozilla/5.0 (Windows NT 10.0; Win64; x64; rv:139.0) Gecko/20100101 Firefox/139.0" version="27.1.1" pages="2">
  <diagram name="Component Solution Overview" id="EVf_Tnk-D4SarBvRRWFY">
    <mxGraphModel dx="1682" dy="2004" grid="1" gridSize="10" guides="1" tooltips="1" connect="1" arrows="1" fold="1" page="1" pageScale="1" pageWidth="850" pageHeight="1100" math="0" shadow="0">
      <root>
        <mxCell id="0" />
        <mxCell id="1" parent="0" />
        <mxCell id="kZAg9J5JLEWKbaA04rke-2" value="&lt;blockquote&gt;&lt;h2 align=&quot;left&quot;&gt;Ontology&lt;/h2&gt;&lt;/blockquote&gt;" style="rounded=1;whiteSpace=wrap;html=1;align=left;" parent="1" vertex="1">
          <mxGeometry y="60" width="850" height="100" as="geometry" />
        </mxCell>
        <mxCell id="kZAg9J5JLEWKbaA04rke-3" value="Domain Defined, Rules Driven Policy Change Process Component Overview" style="text;html=1;align=center;verticalAlign=middle;resizable=0;points=[];autosize=1;strokeColor=none;fillColor=none;" parent="1" vertex="1">
          <mxGeometry x="210" y="-40" width="430" height="30" as="geometry" />
        </mxCell>
        <mxCell id="kZAg9J5JLEWKbaA04rke-7" value="&lt;blockquote&gt;&lt;h2 align=&quot;left&quot;&gt;Architecture&lt;/h2&gt;&lt;/blockquote&gt;" style="rounded=1;whiteSpace=wrap;html=1;align=left;" parent="1" vertex="1">
          <mxGeometry y="190" width="850" height="100" as="geometry" />
        </mxCell>
        <mxCell id="kZAg9J5JLEWKbaA04rke-8" value="&lt;blockquote&gt;&lt;h2&gt;Implementation&lt;/h2&gt;&lt;/blockquote&gt;" style="rounded=1;whiteSpace=wrap;html=1;align=left;" parent="1" vertex="1">
          <mxGeometry y="320" width="850" height="100" as="geometry" />
        </mxCell>
        <mxCell id="kZAg9J5JLEWKbaA04rke-10" value="&lt;h2&gt;Process&lt;/h2&gt;" style="rounded=1;whiteSpace=wrap;html=1;verticalAlign=top;" parent="1" vertex="1">
          <mxGeometry x="424" width="170" height="440" as="geometry" />
        </mxCell>
        <mxCell id="kZAg9J5JLEWKbaA04rke-13" value="&lt;h2 align=&quot;center&quot; style=&quot;margin-top: 16.08px; margin-bottom: 16.08px; padding: 0px;&quot;&gt;Entity&lt;/h2&gt;" style="rounded=1;whiteSpace=wrap;html=1;align=center;verticalAlign=top;" parent="1" vertex="1">
          <mxGeometry x="214" width="170" height="440" as="geometry" />
        </mxCell>
        <mxCell id="kZAg9J5JLEWKbaA04rke-14" value="&lt;h2&gt;Rules&lt;/h2&gt;" style="rounded=1;whiteSpace=wrap;html=1;verticalAlign=top;" parent="1" vertex="1">
          <mxGeometry x="634" width="170" height="440" as="geometry" />
        </mxCell>
        <mxCell id="kZAg9J5JLEWKbaA04rke-15" value="Policy Domain Model" style="rounded=1;whiteSpace=wrap;html=1;" parent="1" vertex="1">
          <mxGeometry x="230" y="210" width="140" height="60" as="geometry" />
        </mxCell>
        <mxCell id="kZAg9J5JLEWKbaA04rke-16" value="Policy Change Orchestration" style="rounded=1;whiteSpace=wrap;html=1;" parent="1" vertex="1">
          <mxGeometry x="440" y="210" width="140" height="60" as="geometry" />
        </mxCell>
        <mxCell id="kZAg9J5JLEWKbaA04rke-17" value="&lt;div&gt;Policy Change Type&amp;nbsp;&lt;/div&gt;&lt;div&gt;Rule Sets&lt;/div&gt;" style="rounded=1;whiteSpace=wrap;html=1;" parent="1" vertex="1">
          <mxGeometry x="650" y="210" width="140" height="60" as="geometry" />
        </mxCell>
        <mxCell id="kZAg9J5JLEWKbaA04rke-18" value="PolicyVx" style="rounded=1;whiteSpace=wrap;html=1;" parent="1" vertex="1">
          <mxGeometry x="230" y="340" width="140" height="60" as="geometry" />
        </mxCell>
        <mxCell id="kZAg9J5JLEWKbaA04rke-21" value="Policy" style="rounded=1;whiteSpace=wrap;html=1;" parent="1" vertex="1">
          <mxGeometry x="230" y="80" width="140" height="60" as="geometry" />
        </mxCell>
        <mxCell id="kZAg9J5JLEWKbaA04rke-22" value="Policy Change" style="rounded=1;whiteSpace=wrap;html=1;" parent="1" vertex="1">
          <mxGeometry x="440" y="80" width="140" height="60" as="geometry" />
        </mxCell>
        <mxCell id="kZAg9J5JLEWKbaA04rke-23" value="Policy Change Rules" style="rounded=1;whiteSpace=wrap;html=1;" parent="1" vertex="1">
          <mxGeometry x="650" y="80" width="140" height="60" as="geometry" />
        </mxCell>
        <mxCell id="kZAg9J5JLEWKbaA04rke-24" value="PolicyChangeSaga" style="rounded=1;whiteSpace=wrap;html=1;" parent="1" vertex="1">
          <mxGeometry x="440" y="340" width="140" height="60" as="geometry" />
        </mxCell>
        <mxCell id="kZAg9J5JLEWKbaA04rke-25" value="&lt;div align=&quot;center&quot;&gt;PolicyChange.AddDriver Ruleset&lt;/div&gt;" style="rounded=1;whiteSpace=wrap;html=1;align=center;" parent="1" vertex="1">
          <mxGeometry x="649" y="340" width="140" height="60" as="geometry" />
        </mxCell>
      </root>
    </mxGraphModel>
  </diagram>
  <diagram id="JW-ETXzxixlRKIvKUzZ6" name="Rules System Architecure">
    <mxGraphModel dx="1682" dy="904" grid="1" gridSize="10" guides="1" tooltips="1" connect="1" arrows="1" fold="1" page="1" pageScale="1" pageWidth="850" pageHeight="1100" math="0" shadow="0">
      <root>
        <mxCell id="0" />
        <mxCell id="1" parent="0" />
        <mxCell id="4-ZTMX5XuTzsYP-xvgLb-1" value="&lt;div&gt;Requirements Rule Response&lt;/div&gt;&lt;div&gt;&lt;br&gt;&lt;/div&gt;&lt;div&gt;Required: [Drivers, Insureds, Underwriter]&lt;/div&gt;" style="rounded=1;whiteSpace=wrap;html=1;" vertex="1" parent="1">
          <mxGeometry x="15" y="70" width="250" height="60" as="geometry" />
        </mxCell>
        <mxCell id="4-ZTMX5XuTzsYP-xvgLb-2" value="&lt;div&gt;Validation Rule Response&lt;/div&gt;&lt;div&gt;&lt;br&gt;&lt;/div&gt;&lt;div&gt;IsValid: False&lt;/div&gt;&lt;div&gt;Detail: &quot;Driver is not old enough&quot;&lt;/div&gt;&lt;div&gt;HumanInTheLoopGroup: &quot;Underwritting&quot;&lt;/div&gt;" style="rounded=1;whiteSpace=wrap;html=1;" vertex="1" parent="1">
          <mxGeometry x="15" y="150" width="250" height="110" as="geometry" />
        </mxCell>
        <mxCell id="4-ZTMX5XuTzsYP-xvgLb-3" value="&lt;div&gt;Policy.Change.Type RuleSet&lt;/div&gt;&lt;div&gt;&lt;br&gt;&lt;/div&gt;" style="rounded=1;whiteSpace=wrap;html=1;verticalAlign=top;" vertex="1" parent="1">
          <mxGeometry x="295" y="90" width="250" height="110" as="geometry" />
        </mxCell>
        <mxCell id="4-ZTMX5XuTzsYP-xvgLb-4" value="Requirements Rules" style="rounded=1;whiteSpace=wrap;html=1;arcSize=0;" vertex="1" parent="1">
          <mxGeometry x="355" y="120" width="120" height="30" as="geometry" />
        </mxCell>
        <mxCell id="4-ZTMX5XuTzsYP-xvgLb-5" value="Validation Rules" style="rounded=1;whiteSpace=wrap;html=1;" vertex="1" parent="1">
          <mxGeometry x="355" y="160" width="120" height="30" as="geometry" />
        </mxCell>
        <mxCell id="4-ZTMX5XuTzsYP-xvgLb-6" value="PolicyVx Domain Contract" style="rounded=1;whiteSpace=wrap;html=1;verticalAlign=top;" vertex="1" parent="1">
          <mxGeometry x="645" y="95" width="190" height="165" as="geometry" />
        </mxCell>
        <mxCell id="4-ZTMX5XuTzsYP-xvgLb-7" value="Drivers" style="rounded=1;whiteSpace=wrap;html=1;" vertex="1" parent="1">
          <mxGeometry x="680" y="125" width="120" height="30" as="geometry" />
        </mxCell>
        <mxCell id="4-ZTMX5XuTzsYP-xvgLb-8" value="Insureds" style="rounded=1;whiteSpace=wrap;html=1;" vertex="1" parent="1">
          <mxGeometry x="680" y="165" width="120" height="30" as="geometry" />
        </mxCell>
        <mxCell id="4-ZTMX5XuTzsYP-xvgLb-9" value="Underwriter" style="rounded=1;whiteSpace=wrap;html=1;" vertex="1" parent="1">
          <mxGeometry x="680" y="210" width="120" height="30" as="geometry" />
        </mxCell>
        <mxCell id="4-ZTMX5XuTzsYP-xvgLb-10" value="&lt;div&gt;Entity.Process.RulesInstance&lt;/div&gt;" style="text;html=1;align=center;verticalAlign=middle;resizable=0;points=[];autosize=1;strokeColor=none;fillColor=none;" vertex="1" parent="1">
          <mxGeometry x="330" y="220" width="180" height="30" as="geometry" />
        </mxCell>
      </root>
    </mxGraphModel>
  </diagram>
</mxfile>
